<?xml version="1.0" standalone="no"?>
<!DOCTYPE svg PUBLIC "-//W3C//DTD SVG 20010904//EN"
 "http://www.w3.org/TR/2001/REC-SVG-20010904/DTD/svg10.dtd">
<svg version="1.0" xmlns="http://www.w3.org/2000/svg"
 width="100.000000pt" height="100.000000pt" viewBox="0 0 100.000000 100.000000"
 preserveAspectRatio="xMidYMid meet">
<metadata>
Created by potrace 1.14, written by Peter Selinger 2001-2017
</metadata>
<g transform="translate(0.000000,100.000000) scale(0.100000,-0.100000)"
fill="#000000" stroke="none">
<path d="M383 986 c-181 -44 -334 -202 -372 -384 -65 -310 179 -605 497 -601
270 2 494 234 491 507 -3 314 -310 552 -616 478z m1 -419 c21 -59 42 -105 45
-102 3 4 22 52 42 108 l36 102 62 3 61 3 0 -101 0 -102 -55 4 -54 3 -28 -80
-28 -80 -40 0 -40 0 -32 90 -31 90 -4 -90 -3 -90 -47 -3 -48 -3 0 181 0 181
62 -3 63 -3 39 -108z m406 -16 c0 -70 -5 -142 -11 -159 -33 -95 -204 -86 -237
12 -6 21 -10 42 -6 47 9 15 94 11 94 -5 0 -20 25 -37 44 -30 14 5 16 25 16
135 l0 129 50 0 50 0 0 -129z"/>
</g>
</svg>
