<svg width="16" height="18" viewBox="0 0 16 18" fill="none" xmlns="http://www.w3.org/2000/svg">
<path fill-rule="evenodd" clip-rule="evenodd" d="M7.15482 0.400002H8.84509C10.3153 0.399989 11.4798 0.399979 12.3912 0.52251C13.3291 0.648612 14.0883 0.914306 14.687 1.513C15.2856 2.11169 15.5513 2.87085 15.6774 3.80878C15.8 4.72016 15.8 5.88466 15.8 7.35487V10.6451C15.8 12.1153 15.8 13.2798 15.6774 14.1912C15.5513 15.1292 15.2856 15.8883 14.687 16.487C14.0883 17.0857 13.3291 17.3514 12.3912 17.4775C11.4798 17.6 10.3153 17.6 8.84508 17.6H7.15482C5.68461 17.6 4.52011 17.6 3.60873 17.4775C2.6708 17.3514 1.91164 17.0857 1.31295 16.487C0.714256 15.8883 0.448562 15.1292 0.322459 14.1912C0.199929 13.2798 0.199939 12.1153 0.199951 10.6451V7.35487C0.199939 5.88466 0.199929 4.72015 0.322459 3.80878C0.448562 2.87085 0.714256 2.11169 1.31295 1.513C1.91164 0.914306 2.6708 0.648612 3.60873 0.52251C4.5201 0.399979 5.68461 0.399989 7.15482 0.400002ZM3.76863 1.71181C2.96376 1.82002 2.50004 2.02296 2.16147 2.36152C1.82291 2.70009 1.61997 3.16381 1.51176 3.96868C1.40123 4.79081 1.39995 5.87455 1.39995 7.4V10.6C1.39995 12.1255 1.40123 13.2092 1.51176 14.0313C1.61997 14.8362 1.82291 15.2999 2.16147 15.6385C2.50004 15.977 2.96376 16.18 3.76863 16.2882C4.59076 16.3987 5.6745 16.4 7.19995 16.4H8.79995C10.3254 16.4 11.4091 16.3987 12.2313 16.2882C13.0361 16.18 13.4999 15.977 13.8384 15.6385C14.177 15.2999 14.3799 14.8362 14.4881 14.0313C14.5987 13.2092 14.6 12.1255 14.6 10.6V7.4C14.6 5.87455 14.5987 4.79081 14.4881 3.96868C14.3799 3.16381 14.177 2.70009 13.8384 2.36152C13.4999 2.02296 13.0361 1.82002 12.2313 1.71181C11.4091 1.60128 10.3254 1.6 8.79995 1.6H7.19995C5.6745 1.6 4.59076 1.60128 3.76863 1.71181ZM4.19995 5.8C4.19995 5.46863 4.46858 5.2 4.79995 5.2H11.2C11.5313 5.2 11.8 5.46863 11.8 5.8C11.8 6.13137 11.5313 6.4 11.2 6.4H4.79995C4.46858 6.4 4.19995 6.13137 4.19995 5.8ZM4.19995 9C4.19995 8.66863 4.46858 8.4 4.79995 8.4H11.2C11.5313 8.4 11.8 8.66863 11.8 9C11.8 9.33137 11.5313 9.6 11.2 9.6H4.79995C4.46858 9.6 4.19995 9.33137 4.19995 9ZM4.19995 12.2C4.19995 11.8686 4.46858 11.6 4.79995 11.6H8.79995C9.13132 11.6 9.39995 11.8686 9.39995 12.2C9.39995 12.5314 9.13132 12.8 8.79995 12.8H4.79995C4.46858 12.8 4.19995 12.5314 4.19995 12.2Z" fill="black" fill-opacity="0.5"/>
</svg>
