<svg width="36" height="36" viewBox="0 0 36 36" fill="none" xmlns="http://www.w3.org/2000/svg">
<path fill-rule="evenodd" clip-rule="evenodd" d="M28.5 12C28.5 12.4971 28.0971 12.9 27.6 12.9L8.4 12.9C7.90294 12.9 7.5 12.4971 7.5 12C7.5 11.5029 7.90294 11.1 8.4 11.1L27.6 11.1C28.0971 11.1 28.5 11.5029 28.5 12Z" fill="black"/>
<path fill-rule="evenodd" clip-rule="evenodd" d="M28.5 18C28.5 18.4971 28.0971 18.9 27.6 18.9L8.4 18.9C7.90294 18.9 7.5 18.4971 7.5 18C7.5 17.5029 7.90294 17.1 8.4 17.1L27.6 17.1C28.0971 17.1 28.5 17.5029 28.5 18Z" fill="black"/>
<path fill-rule="evenodd" clip-rule="evenodd" d="M28.5 24C28.5 24.4971 28.0971 24.9 27.6 24.9L8.4 24.9C7.90294 24.9 7.5 24.4971 7.5 24C7.5 23.5029 7.90294 23.1 8.4 23.1L27.6 23.1C28.0971 23.1 28.5 23.5029 28.5 24Z" fill="black"/>
</svg>
