<svg width="24" height="24" viewBox="0 0 24 24" fill="none" xmlns="http://www.w3.org/2000/svg">
<path fill-rule="evenodd" clip-rule="evenodd" d="M11.6004 4.59999C7.7344 4.59999 4.60039 7.734 4.60039 11.6C4.60039 15.466 7.7344 18.6 11.6004 18.6C15.4664 18.6 18.6004 15.466 18.6004 11.6C18.6004 7.734 15.4664 4.59999 11.6004 4.59999ZM3.40039 11.6C3.40039 7.07126 7.07166 3.39999 11.6004 3.39999C16.1291 3.39999 19.8004 7.07126 19.8004 11.6C19.8004 13.6484 19.0493 15.5214 17.8075 16.9586L20.4247 19.5757C20.659 19.81 20.659 20.1899 20.4247 20.4243C20.1903 20.6586 19.8104 20.6586 19.5761 20.4243L16.959 17.8071C15.5218 19.0489 13.6488 19.8 11.6004 19.8C7.07166 19.8 3.40039 16.1287 3.40039 11.6Z" fill="black" fill-opacity="0.5"/>
</svg>
