<svg width="36" height="36" viewBox="0 0 36 36" fill="none" xmlns="http://www.w3.org/2000/svg">
<path fill-rule="evenodd" clip-rule="evenodd" d="M23.4 6.3C21.2461 6.3 19.5 8.04609 19.5 10.2C19.5 10.4351 19.5208 10.6653 19.5607 10.889L13.8839 14.8627C13.855 14.8829 13.8277 14.9045 13.802 14.9273C13.1399 14.409 12.306 14.1 11.4 14.1C9.24609 14.1 7.5 15.8461 7.5 18C7.5 20.1539 9.24609 21.9 11.4 21.9C12.306 21.9 13.1399 21.591 13.802 21.0727C13.8277 21.0955 13.855 21.1171 13.8839 21.1373L19.5607 25.1111C19.5208 25.3347 19.5 25.5649 19.5 25.8C19.5 27.9539 21.2461 29.7 23.4 29.7C25.5539 29.7 27.3 27.9539 27.3 25.8C27.3 23.6461 25.5539 21.9 23.4 21.9C22.1367 21.9 21.0136 22.5007 20.3009 23.432L14.9257 19.6694C15.1657 19.1633 15.3 18.5973 15.3 18C15.3 17.4027 15.1657 16.8367 14.9257 16.3306L20.3009 12.568C21.0136 13.4993 22.1367 14.1 23.4 14.1C25.5539 14.1 27.3 12.3539 27.3 10.2C27.3 8.04609 25.5539 6.3 23.4 6.3ZM21.3 10.2C21.3 9.0402 22.2402 8.1 23.4 8.1C24.5598 8.1 25.5 9.0402 25.5 10.2C25.5 11.3598 24.5598 12.3 23.4 12.3C22.2402 12.3 21.3 11.3598 21.3 10.2ZM11.4 15.9C10.2402 15.9 9.3 16.8402 9.3 18C9.3 19.1598 10.2402 20.1 11.4 20.1C12.5598 20.1 13.5 19.1598 13.5 18C13.5 16.8402 12.5598 15.9 11.4 15.9ZM23.4 23.7C22.2402 23.7 21.3 24.6402 21.3 25.8C21.3 26.9598 22.2402 27.9 23.4 27.9C24.5598 27.9 25.5 26.9598 25.5 25.8C25.5 24.6402 24.5598 23.7 23.4 23.7Z" fill="black"/>
</svg>
